<mxfile host="app.diagrams.net" agent="Mozilla/5.0 (Windows NT 10.0; Win64; x64) AppleWebKit/537.36 (KHTML, like Gecko) Chrome/129.0.0.0 Safari/537.36 Edg/129.0.0.0" version="24.7.17">
  <diagram name="PÃ¡gina-1" id="hQ4ME5rU45hA8imHhjFK">
    <mxGraphModel dx="1910" dy="1137" grid="1" gridSize="10" guides="1" tooltips="1" connect="1" arrows="1" fold="1" page="1" pageScale="1" pageWidth="827" pageHeight="1169" math="0" shadow="0">
      <root>
        <mxCell id="0" />
        <mxCell id="1" parent="0" />
        <mxCell id="NDDpkbU5bPHlQD1MSe6W-2" value="Users" style="whiteSpace=wrap;html=1;align=center;" vertex="1" parent="1">
          <mxGeometry x="250" y="220" width="100" height="40" as="geometry" />
        </mxCell>
        <mxCell id="NDDpkbU5bPHlQD1MSe6W-3" value="ID" style="ellipse;whiteSpace=wrap;html=1;align=center;fontStyle=4;" vertex="1" parent="1">
          <mxGeometry x="130" y="180" width="70" height="30" as="geometry" />
        </mxCell>
        <mxCell id="NDDpkbU5bPHlQD1MSe6W-5" value="" style="endArrow=none;html=1;rounded=0;exitX=1;exitY=1;exitDx=0;exitDy=0;entryX=0;entryY=0;entryDx=0;entryDy=0;" edge="1" parent="1" source="NDDpkbU5bPHlQD1MSe6W-3" target="NDDpkbU5bPHlQD1MSe6W-2">
          <mxGeometry relative="1" as="geometry">
            <mxPoint x="280" y="280" as="sourcePoint" />
            <mxPoint x="440" y="280" as="targetPoint" />
          </mxGeometry>
        </mxCell>
        <mxCell id="NDDpkbU5bPHlQD1MSe6W-6" value="Name" style="ellipse;whiteSpace=wrap;html=1;align=center;" vertex="1" parent="1">
          <mxGeometry x="140" y="140" width="80" height="30" as="geometry" />
        </mxCell>
        <mxCell id="NDDpkbU5bPHlQD1MSe6W-7" value="" style="endArrow=none;html=1;rounded=0;exitX=0.5;exitY=1;exitDx=0;exitDy=0;entryX=0.25;entryY=0;entryDx=0;entryDy=0;" edge="1" parent="1" source="NDDpkbU5bPHlQD1MSe6W-6" target="NDDpkbU5bPHlQD1MSe6W-2">
          <mxGeometry relative="1" as="geometry">
            <mxPoint x="220" y="176" as="sourcePoint" />
            <mxPoint x="260" y="230" as="targetPoint" />
          </mxGeometry>
        </mxCell>
        <mxCell id="NDDpkbU5bPHlQD1MSe6W-8" value="Phone number" style="ellipse;whiteSpace=wrap;html=1;align=center;" vertex="1" parent="1">
          <mxGeometry x="160" y="100" width="80" height="30" as="geometry" />
        </mxCell>
        <mxCell id="NDDpkbU5bPHlQD1MSe6W-9" value="" style="endArrow=none;html=1;rounded=0;exitX=0.5;exitY=1;exitDx=0;exitDy=0;entryX=0.5;entryY=0;entryDx=0;entryDy=0;" edge="1" parent="1" source="NDDpkbU5bPHlQD1MSe6W-8" target="NDDpkbU5bPHlQD1MSe6W-2">
          <mxGeometry relative="1" as="geometry">
            <mxPoint x="320" y="176" as="sourcePoint" />
            <mxPoint x="375" y="220" as="targetPoint" />
          </mxGeometry>
        </mxCell>
        <mxCell id="NDDpkbU5bPHlQD1MSe6W-10" value="Email&lt;div&gt;Address&lt;/div&gt;" style="ellipse;whiteSpace=wrap;html=1;align=center;" vertex="1" parent="1">
          <mxGeometry x="210" y="70" width="80" height="30" as="geometry" />
        </mxCell>
        <mxCell id="NDDpkbU5bPHlQD1MSe6W-11" value="" style="endArrow=none;html=1;rounded=0;exitX=0.5;exitY=1;exitDx=0;exitDy=0;entryX=0.5;entryY=0;entryDx=0;entryDy=0;" edge="1" parent="1" source="NDDpkbU5bPHlQD1MSe6W-10" target="NDDpkbU5bPHlQD1MSe6W-2">
          <mxGeometry relative="1" as="geometry">
            <mxPoint x="240" y="196" as="sourcePoint" />
            <mxPoint x="295" y="240" as="targetPoint" />
          </mxGeometry>
        </mxCell>
        <mxCell id="NDDpkbU5bPHlQD1MSe6W-12" value="Street" style="ellipse;whiteSpace=wrap;html=1;align=center;" vertex="1" parent="1">
          <mxGeometry x="300" y="70" width="80" height="30" as="geometry" />
        </mxCell>
        <mxCell id="NDDpkbU5bPHlQD1MSe6W-13" value="" style="endArrow=none;html=1;rounded=0;exitX=0.5;exitY=1;exitDx=0;exitDy=0;entryX=0.5;entryY=0;entryDx=0;entryDy=0;" edge="1" parent="1" source="NDDpkbU5bPHlQD1MSe6W-12" target="NDDpkbU5bPHlQD1MSe6W-2">
          <mxGeometry relative="1" as="geometry">
            <mxPoint x="390" y="136" as="sourcePoint" />
            <mxPoint x="445" y="180" as="targetPoint" />
          </mxGeometry>
        </mxCell>
        <mxCell id="NDDpkbU5bPHlQD1MSe6W-14" value="Country" style="ellipse;whiteSpace=wrap;html=1;align=center;" vertex="1" parent="1">
          <mxGeometry x="370" y="90" width="80" height="30" as="geometry" />
        </mxCell>
        <mxCell id="NDDpkbU5bPHlQD1MSe6W-15" value="" style="endArrow=none;html=1;rounded=0;exitX=0.5;exitY=1;exitDx=0;exitDy=0;entryX=0.75;entryY=0;entryDx=0;entryDy=0;" edge="1" parent="1" source="NDDpkbU5bPHlQD1MSe6W-14" target="NDDpkbU5bPHlQD1MSe6W-2">
          <mxGeometry relative="1" as="geometry">
            <mxPoint x="420" y="166" as="sourcePoint" />
            <mxPoint x="475" y="210" as="targetPoint" />
          </mxGeometry>
        </mxCell>
        <mxCell id="NDDpkbU5bPHlQD1MSe6W-16" value="Postal&lt;div&gt;Code&lt;/div&gt;" style="ellipse;whiteSpace=wrap;html=1;align=center;" vertex="1" parent="1">
          <mxGeometry x="414" y="130" width="80" height="30" as="geometry" />
        </mxCell>
        <mxCell id="NDDpkbU5bPHlQD1MSe6W-17" value="" style="endArrow=none;html=1;rounded=0;exitX=0;exitY=0.5;exitDx=0;exitDy=0;entryX=1;entryY=0;entryDx=0;entryDy=0;" edge="1" parent="1" source="NDDpkbU5bPHlQD1MSe6W-16" target="NDDpkbU5bPHlQD1MSe6W-2">
          <mxGeometry relative="1" as="geometry">
            <mxPoint x="450" y="186" as="sourcePoint" />
            <mxPoint x="505" y="230" as="targetPoint" />
          </mxGeometry>
        </mxCell>
        <mxCell id="NDDpkbU5bPHlQD1MSe6W-18" value="State" style="ellipse;whiteSpace=wrap;html=1;align=center;" vertex="1" parent="1">
          <mxGeometry x="460" y="160" width="80" height="30" as="geometry" />
        </mxCell>
        <mxCell id="NDDpkbU5bPHlQD1MSe6W-19" value="" style="endArrow=none;html=1;rounded=0;exitX=0;exitY=0.5;exitDx=0;exitDy=0;entryX=1;entryY=0;entryDx=0;entryDy=0;" edge="1" parent="1" source="NDDpkbU5bPHlQD1MSe6W-18" target="NDDpkbU5bPHlQD1MSe6W-2">
          <mxGeometry relative="1" as="geometry">
            <mxPoint x="440" y="226" as="sourcePoint" />
            <mxPoint x="495" y="270" as="targetPoint" />
          </mxGeometry>
        </mxCell>
        <mxCell id="NDDpkbU5bPHlQD1MSe6W-20" value="City" style="ellipse;whiteSpace=wrap;html=1;align=center;" vertex="1" parent="1">
          <mxGeometry x="430" y="190" width="80" height="30" as="geometry" />
        </mxCell>
        <mxCell id="NDDpkbU5bPHlQD1MSe6W-21" value="" style="endArrow=none;html=1;rounded=0;exitX=0;exitY=0.5;exitDx=0;exitDy=0;entryX=1;entryY=0;entryDx=0;entryDy=0;" edge="1" parent="1" source="NDDpkbU5bPHlQD1MSe6W-20" target="NDDpkbU5bPHlQD1MSe6W-2">
          <mxGeometry relative="1" as="geometry">
            <mxPoint x="470" y="276" as="sourcePoint" />
            <mxPoint x="525" y="320" as="targetPoint" />
          </mxGeometry>
        </mxCell>
        <mxCell id="NDDpkbU5bPHlQD1MSe6W-22" value="Educational Insitution" style="whiteSpace=wrap;html=1;align=center;" vertex="1" parent="1">
          <mxGeometry x="20" y="380" width="100" height="40" as="geometry" />
        </mxCell>
        <mxCell id="NDDpkbU5bPHlQD1MSe6W-24" value="" style="endArrow=none;html=1;rounded=0;exitX=1;exitY=0.5;exitDx=0;exitDy=0;entryX=0;entryY=1;entryDx=0;entryDy=0;" edge="1" parent="1" source="NDDpkbU5bPHlQD1MSe6W-36" target="NDDpkbU5bPHlQD1MSe6W-22">
          <mxGeometry relative="1" as="geometry">
            <mxPoint x="-10.25126265847075" y="355.6066017177982" as="sourcePoint" />
            <mxPoint x="240" y="430" as="targetPoint" />
          </mxGeometry>
        </mxCell>
        <mxCell id="NDDpkbU5bPHlQD1MSe6W-28" value="" style="triangle;whiteSpace=wrap;html=1;rotation=-90;" vertex="1" parent="1">
          <mxGeometry x="270" y="290" width="60" height="80" as="geometry" />
        </mxCell>
        <mxCell id="NDDpkbU5bPHlQD1MSe6W-29" value="" style="endArrow=none;html=1;rounded=0;exitX=1;exitY=0.5;exitDx=0;exitDy=0;entryX=0.5;entryY=1;entryDx=0;entryDy=0;" edge="1" parent="1" source="NDDpkbU5bPHlQD1MSe6W-28" target="NDDpkbU5bPHlQD1MSe6W-2">
          <mxGeometry relative="1" as="geometry">
            <mxPoint x="190" y="180" as="sourcePoint" />
            <mxPoint x="285" y="230" as="targetPoint" />
          </mxGeometry>
        </mxCell>
        <mxCell id="NDDpkbU5bPHlQD1MSe6W-30" value="" style="endArrow=none;html=1;rounded=0;exitX=1;exitY=0;exitDx=0;exitDy=0;entryX=0;entryY=0.25;entryDx=0;entryDy=0;" edge="1" parent="1" source="NDDpkbU5bPHlQD1MSe6W-22" target="NDDpkbU5bPHlQD1MSe6W-28">
          <mxGeometry relative="1" as="geometry">
            <mxPoint x="200" y="190" as="sourcePoint" />
            <mxPoint x="295" y="240" as="targetPoint" />
          </mxGeometry>
        </mxCell>
        <mxCell id="NDDpkbU5bPHlQD1MSe6W-31" value="Teacher" style="whiteSpace=wrap;html=1;align=center;" vertex="1" parent="1">
          <mxGeometry x="130" y="530" width="100" height="40" as="geometry" />
        </mxCell>
        <mxCell id="NDDpkbU5bPHlQD1MSe6W-33" value="" style="endArrow=none;html=1;rounded=0;exitX=1;exitY=0.5;exitDx=0;exitDy=0;entryX=0;entryY=0.75;entryDx=0;entryDy=0;" edge="1" parent="1" target="NDDpkbU5bPHlQD1MSe6W-31">
          <mxGeometry relative="1" as="geometry">
            <mxPoint x="80" y="565" as="sourcePoint" />
            <mxPoint x="350" y="580" as="targetPoint" />
          </mxGeometry>
        </mxCell>
        <mxCell id="NDDpkbU5bPHlQD1MSe6W-34" value="" style="endArrow=none;html=1;rounded=0;exitX=0.75;exitY=0;exitDx=0;exitDy=0;entryX=0;entryY=0.5;entryDx=0;entryDy=0;" edge="1" parent="1" source="NDDpkbU5bPHlQD1MSe6W-31" target="NDDpkbU5bPHlQD1MSe6W-28">
          <mxGeometry relative="1" as="geometry">
            <mxPoint x="90" y="450" as="sourcePoint" />
            <mxPoint x="290" y="370" as="targetPoint" />
          </mxGeometry>
        </mxCell>
        <mxCell id="NDDpkbU5bPHlQD1MSe6W-36" value="CNPJ" style="ellipse;whiteSpace=wrap;html=1;align=center;" vertex="1" parent="1">
          <mxGeometry x="-90" y="420" width="80" height="30" as="geometry" />
        </mxCell>
        <mxCell id="NDDpkbU5bPHlQD1MSe6W-37" value="Salary" style="ellipse;whiteSpace=wrap;html=1;align=center;" vertex="1" parent="1">
          <mxGeometry y="550" width="80" height="30" as="geometry" />
        </mxCell>
        <mxCell id="NDDpkbU5bPHlQD1MSe6W-38" value="Department" style="ellipse;whiteSpace=wrap;html=1;align=center;" vertex="1" parent="1">
          <mxGeometry x="20" y="590" width="80" height="30" as="geometry" />
        </mxCell>
        <mxCell id="NDDpkbU5bPHlQD1MSe6W-39" value="" style="endArrow=none;html=1;rounded=0;exitX=0.5;exitY=0;exitDx=0;exitDy=0;entryX=0.25;entryY=1;entryDx=0;entryDy=0;" edge="1" parent="1" source="NDDpkbU5bPHlQD1MSe6W-38" target="NDDpkbU5bPHlQD1MSe6W-31">
          <mxGeometry relative="1" as="geometry">
            <mxPoint x="90" y="575" as="sourcePoint" />
            <mxPoint x="140" y="570" as="targetPoint" />
          </mxGeometry>
        </mxCell>
        <mxCell id="NDDpkbU5bPHlQD1MSe6W-40" value="Student" style="whiteSpace=wrap;html=1;align=center;" vertex="1" parent="1">
          <mxGeometry x="380" y="530" width="100" height="40" as="geometry" />
        </mxCell>
        <mxCell id="NDDpkbU5bPHlQD1MSe6W-41" value="" style="endArrow=none;html=1;rounded=0;exitX=0.5;exitY=0;exitDx=0;exitDy=0;entryX=0.5;entryY=1;entryDx=0;entryDy=0;" edge="1" parent="1" target="NDDpkbU5bPHlQD1MSe6W-40" source="NDDpkbU5bPHlQD1MSe6W-42">
          <mxGeometry relative="1" as="geometry">
            <mxPoint x="370" y="585" as="sourcePoint" />
            <mxPoint x="640" y="600" as="targetPoint" />
          </mxGeometry>
        </mxCell>
        <mxCell id="NDDpkbU5bPHlQD1MSe6W-42" value="CPF" style="ellipse;whiteSpace=wrap;html=1;align=center;" vertex="1" parent="1">
          <mxGeometry x="410" y="600" width="80" height="30" as="geometry" />
        </mxCell>
        <mxCell id="NDDpkbU5bPHlQD1MSe6W-43" value="RG" style="ellipse;whiteSpace=wrap;html=1;align=center;" vertex="1" parent="1">
          <mxGeometry x="490" y="590" width="80" height="30" as="geometry" />
        </mxCell>
        <mxCell id="NDDpkbU5bPHlQD1MSe6W-44" value="" style="endArrow=none;html=1;rounded=0;exitX=0;exitY=0;exitDx=0;exitDy=0;entryX=1;entryY=1;entryDx=0;entryDy=0;" edge="1" parent="1" source="NDDpkbU5bPHlQD1MSe6W-43" target="NDDpkbU5bPHlQD1MSe6W-40">
          <mxGeometry relative="1" as="geometry">
            <mxPoint x="380" y="595" as="sourcePoint" />
            <mxPoint x="430" y="590" as="targetPoint" />
          </mxGeometry>
        </mxCell>
        <mxCell id="NDDpkbU5bPHlQD1MSe6W-45" value="" style="endArrow=none;html=1;rounded=0;exitX=0.25;exitY=0;exitDx=0;exitDy=0;entryX=0;entryY=0.5;entryDx=0;entryDy=0;" edge="1" parent="1" source="NDDpkbU5bPHlQD1MSe6W-40" target="NDDpkbU5bPHlQD1MSe6W-28">
          <mxGeometry relative="1" as="geometry">
            <mxPoint x="225" y="460" as="sourcePoint" />
            <mxPoint x="310" y="370" as="targetPoint" />
          </mxGeometry>
        </mxCell>
        <mxCell id="NDDpkbU5bPHlQD1MSe6W-46" value="Partner Company" style="whiteSpace=wrap;html=1;align=center;" vertex="1" parent="1">
          <mxGeometry x="550" y="380" width="100" height="40" as="geometry" />
        </mxCell>
        <mxCell id="NDDpkbU5bPHlQD1MSe6W-49" value="Perk" style="ellipse;whiteSpace=wrap;html=1;align=center;" vertex="1" parent="1">
          <mxGeometry x="600" y="460" width="80" height="30" as="geometry" />
        </mxCell>
        <mxCell id="NDDpkbU5bPHlQD1MSe6W-50" value="" style="endArrow=none;html=1;rounded=0;exitX=0.5;exitY=0;exitDx=0;exitDy=0;entryX=0.75;entryY=1;entryDx=0;entryDy=0;" edge="1" parent="1" source="NDDpkbU5bPHlQD1MSe6W-49" target="NDDpkbU5bPHlQD1MSe6W-46">
          <mxGeometry relative="1" as="geometry">
            <mxPoint x="550" y="445" as="sourcePoint" />
            <mxPoint x="600" y="440" as="targetPoint" />
          </mxGeometry>
        </mxCell>
        <mxCell id="NDDpkbU5bPHlQD1MSe6W-51" value="" style="endArrow=none;html=1;rounded=0;exitX=0;exitY=0.5;exitDx=0;exitDy=0;entryX=1;entryY=1;entryDx=0;entryDy=0;" edge="1" parent="1" source="NDDpkbU5bPHlQD1MSe6W-52" target="NDDpkbU5bPHlQD1MSe6W-46">
          <mxGeometry relative="1" as="geometry">
            <mxPoint x="740" y="435" as="sourcePoint" />
            <mxPoint x="750" y="410" as="targetPoint" />
          </mxGeometry>
        </mxCell>
        <mxCell id="NDDpkbU5bPHlQD1MSe6W-52" value="CNPJ" style="ellipse;whiteSpace=wrap;html=1;align=center;" vertex="1" parent="1">
          <mxGeometry x="680" y="420" width="80" height="30" as="geometry" />
        </mxCell>
        <mxCell id="NDDpkbU5bPHlQD1MSe6W-53" value="" style="endArrow=none;html=1;rounded=0;exitX=0;exitY=0.75;exitDx=0;exitDy=0;entryX=0;entryY=0.5;entryDx=0;entryDy=0;" edge="1" parent="1" source="NDDpkbU5bPHlQD1MSe6W-28" target="NDDpkbU5bPHlQD1MSe6W-46">
          <mxGeometry relative="1" as="geometry">
            <mxPoint x="670" y="465" as="sourcePoint" />
            <mxPoint x="690" y="420" as="targetPoint" />
          </mxGeometry>
        </mxCell>
        <mxCell id="NDDpkbU5bPHlQD1MSe6W-55" value="" style="endArrow=none;html=1;rounded=0;exitX=0.5;exitY=1;exitDx=0;exitDy=0;entryX=0;entryY=0;entryDx=0;entryDy=0;" edge="1" parent="1" source="NDDpkbU5bPHlQD1MSe6W-22" target="NDDpkbU5bPHlQD1MSe6W-31">
          <mxGeometry relative="1" as="geometry">
            <mxPoint x="130" y="390" as="sourcePoint" />
            <mxPoint x="290" y="370" as="targetPoint" />
          </mxGeometry>
        </mxCell>
        <mxCell id="NDDpkbU5bPHlQD1MSe6W-56" value="1" style="edgeLabel;html=1;align=center;verticalAlign=middle;resizable=0;points=[];" vertex="1" connectable="0" parent="NDDpkbU5bPHlQD1MSe6W-55">
          <mxGeometry x="-0.2981" y="3" relative="1" as="geometry">
            <mxPoint x="-4" y="-27" as="offset" />
          </mxGeometry>
        </mxCell>
        <mxCell id="NDDpkbU5bPHlQD1MSe6W-57" value="1-N" style="edgeLabel;html=1;align=center;verticalAlign=middle;resizable=0;points=[];" vertex="1" connectable="0" parent="NDDpkbU5bPHlQD1MSe6W-55">
          <mxGeometry x="0.6713" relative="1" as="geometry">
            <mxPoint x="20" y="8" as="offset" />
          </mxGeometry>
        </mxCell>
        <mxCell id="NDDpkbU5bPHlQD1MSe6W-58" value="Classroom" style="shape=ext;margin=3;double=1;whiteSpace=wrap;html=1;align=center;" vertex="1" parent="1">
          <mxGeometry x="250" y="650" width="100" height="40" as="geometry" />
        </mxCell>
        <mxCell id="NDDpkbU5bPHlQD1MSe6W-59" value="" style="endArrow=none;html=1;rounded=0;exitX=0.5;exitY=0;exitDx=0;exitDy=0;entryX=0.5;entryY=1;entryDx=0;entryDy=0;" edge="1" parent="1" source="NDDpkbU5bPHlQD1MSe6W-60">
          <mxGeometry relative="1" as="geometry">
            <mxPoint x="240" y="705" as="sourcePoint" />
            <mxPoint x="300" y="690" as="targetPoint" />
          </mxGeometry>
        </mxCell>
        <mxCell id="NDDpkbU5bPHlQD1MSe6W-60" value="Name" style="ellipse;whiteSpace=wrap;html=1;align=center;" vertex="1" parent="1">
          <mxGeometry x="260" y="750" width="80" height="30" as="geometry" />
        </mxCell>
        <mxCell id="NDDpkbU5bPHlQD1MSe6W-61" value="Capacity" style="ellipse;whiteSpace=wrap;html=1;align=center;" vertex="1" parent="1">
          <mxGeometry x="334" y="720" width="80" height="30" as="geometry" />
        </mxCell>
        <mxCell id="NDDpkbU5bPHlQD1MSe6W-62" value="" style="endArrow=none;html=1;rounded=0;exitX=0.5;exitY=0;exitDx=0;exitDy=0;entryX=1;entryY=1;entryDx=0;entryDy=0;" edge="1" parent="1" source="NDDpkbU5bPHlQD1MSe6W-61">
          <mxGeometry relative="1" as="geometry">
            <mxPoint x="250" y="715" as="sourcePoint" />
            <mxPoint x="350" y="690" as="targetPoint" />
          </mxGeometry>
        </mxCell>
        <mxCell id="NDDpkbU5bPHlQD1MSe6W-63" value="Semester" style="ellipse;whiteSpace=wrap;html=1;align=center;" vertex="1" parent="1">
          <mxGeometry x="190" y="720" width="80" height="30" as="geometry" />
        </mxCell>
        <mxCell id="NDDpkbU5bPHlQD1MSe6W-64" value="" style="endArrow=none;html=1;rounded=0;exitX=0.5;exitY=0;exitDx=0;exitDy=0;entryX=0;entryY=1;entryDx=0;entryDy=0;" edge="1" parent="1" source="NDDpkbU5bPHlQD1MSe6W-63" target="NDDpkbU5bPHlQD1MSe6W-58">
          <mxGeometry relative="1" as="geometry">
            <mxPoint x="330" y="730" as="sourcePoint" />
            <mxPoint x="310" y="700" as="targetPoint" />
          </mxGeometry>
        </mxCell>
        <mxCell id="NDDpkbU5bPHlQD1MSe6W-65" value="" style="endArrow=none;html=1;rounded=0;exitX=1;exitY=1;exitDx=0;exitDy=0;entryX=0;entryY=0;entryDx=0;entryDy=0;" edge="1" parent="1" source="NDDpkbU5bPHlQD1MSe6W-31" target="NDDpkbU5bPHlQD1MSe6W-58">
          <mxGeometry relative="1" as="geometry">
            <mxPoint x="215" y="540" as="sourcePoint" />
            <mxPoint x="310" y="370" as="targetPoint" />
          </mxGeometry>
        </mxCell>
        <mxCell id="NDDpkbU5bPHlQD1MSe6W-66" value="" style="endArrow=none;html=1;rounded=0;exitX=1;exitY=0;exitDx=0;exitDy=0;entryX=0;entryY=1;entryDx=0;entryDy=0;" edge="1" parent="1" source="NDDpkbU5bPHlQD1MSe6W-58" target="NDDpkbU5bPHlQD1MSe6W-40">
          <mxGeometry relative="1" as="geometry">
            <mxPoint x="225" y="550" as="sourcePoint" />
            <mxPoint x="320" y="380" as="targetPoint" />
          </mxGeometry>
        </mxCell>
        <mxCell id="NDDpkbU5bPHlQD1MSe6W-67" value="1" style="edgeLabel;html=1;align=center;verticalAlign=middle;resizable=0;points=[];" vertex="1" connectable="0" parent="NDDpkbU5bPHlQD1MSe6W-66">
          <mxGeometry x="-0.6603" y="1" relative="1" as="geometry">
            <mxPoint x="6" y="4" as="offset" />
          </mxGeometry>
        </mxCell>
        <mxCell id="NDDpkbU5bPHlQD1MSe6W-68" value="0-N" style="edgeLabel;html=1;align=center;verticalAlign=middle;resizable=0;points=[];" vertex="1" connectable="0" parent="NDDpkbU5bPHlQD1MSe6W-66">
          <mxGeometry x="0.5479" relative="1" as="geometry">
            <mxPoint x="17" y="-8" as="offset" />
          </mxGeometry>
        </mxCell>
        <mxCell id="NDDpkbU5bPHlQD1MSe6W-69" value="Notification" style="whiteSpace=wrap;html=1;align=center;" vertex="1" parent="1">
          <mxGeometry x="600" y="640" width="100" height="40" as="geometry" />
        </mxCell>
        <mxCell id="NDDpkbU5bPHlQD1MSe6W-70" value="" style="endArrow=none;html=1;rounded=0;exitX=0.5;exitY=0;exitDx=0;exitDy=0;entryX=0.5;entryY=1;entryDx=0;entryDy=0;" edge="1" parent="1" source="NDDpkbU5bPHlQD1MSe6W-71" target="NDDpkbU5bPHlQD1MSe6W-69">
          <mxGeometry relative="1" as="geometry">
            <mxPoint x="590" y="695" as="sourcePoint" />
            <mxPoint x="860" y="710" as="targetPoint" />
          </mxGeometry>
        </mxCell>
        <mxCell id="NDDpkbU5bPHlQD1MSe6W-71" value="Coupon" style="ellipse;whiteSpace=wrap;html=1;align=center;" vertex="1" parent="1">
          <mxGeometry x="590" y="710" width="80" height="30" as="geometry" />
        </mxCell>
        <mxCell id="NDDpkbU5bPHlQD1MSe6W-75" value="" style="endArrow=none;html=1;rounded=0;exitX=0.25;exitY=0;exitDx=0;exitDy=0;entryX=1;entryY=0.25;entryDx=0;entryDy=0;" edge="1" parent="1" source="NDDpkbU5bPHlQD1MSe6W-69" target="NDDpkbU5bPHlQD1MSe6W-40">
          <mxGeometry relative="1" as="geometry">
            <mxPoint x="625" y="620" as="sourcePoint" />
            <mxPoint x="655" y="540" as="targetPoint" />
            <Array as="points">
              <mxPoint x="600" y="580" />
            </Array>
          </mxGeometry>
        </mxCell>
        <mxCell id="NDDpkbU5bPHlQD1MSe6W-78" value="ID" style="ellipse;whiteSpace=wrap;html=1;align=center;fontStyle=4;" vertex="1" parent="1">
          <mxGeometry x="520" y="680" width="70" height="30" as="geometry" />
        </mxCell>
        <mxCell id="NDDpkbU5bPHlQD1MSe6W-79" value="" style="endArrow=none;html=1;rounded=0;exitX=1;exitY=0;exitDx=0;exitDy=0;entryX=0;entryY=1;entryDx=0;entryDy=0;" edge="1" parent="1" source="NDDpkbU5bPHlQD1MSe6W-78" target="NDDpkbU5bPHlQD1MSe6W-69">
          <mxGeometry relative="1" as="geometry">
            <mxPoint x="680" y="720" as="sourcePoint" />
            <mxPoint x="660" y="690" as="targetPoint" />
          </mxGeometry>
        </mxCell>
        <mxCell id="NDDpkbU5bPHlQD1MSe6W-80" value="Perk" style="whiteSpace=wrap;html=1;align=center;" vertex="1" parent="1">
          <mxGeometry x="790" y="470" width="100" height="40" as="geometry" />
        </mxCell>
        <mxCell id="NDDpkbU5bPHlQD1MSe6W-81" value="Name" style="ellipse;whiteSpace=wrap;html=1;align=center;" vertex="1" parent="1">
          <mxGeometry x="880" y="550" width="80" height="30" as="geometry" />
        </mxCell>
        <mxCell id="NDDpkbU5bPHlQD1MSe6W-82" value="" style="endArrow=none;html=1;rounded=0;exitX=0.5;exitY=0;exitDx=0;exitDy=0;entryX=0.75;entryY=1;entryDx=0;entryDy=0;" edge="1" parent="1" source="NDDpkbU5bPHlQD1MSe6W-81" target="NDDpkbU5bPHlQD1MSe6W-80">
          <mxGeometry relative="1" as="geometry">
            <mxPoint x="790" y="535" as="sourcePoint" />
            <mxPoint x="840" y="530" as="targetPoint" />
          </mxGeometry>
        </mxCell>
        <mxCell id="NDDpkbU5bPHlQD1MSe6W-83" value="" style="endArrow=none;html=1;rounded=0;exitX=0;exitY=0.5;exitDx=0;exitDy=0;entryX=1;entryY=1;entryDx=0;entryDy=0;" edge="1" parent="1" source="NDDpkbU5bPHlQD1MSe6W-84" target="NDDpkbU5bPHlQD1MSe6W-80">
          <mxGeometry relative="1" as="geometry">
            <mxPoint x="980" y="525" as="sourcePoint" />
            <mxPoint x="990" y="500" as="targetPoint" />
          </mxGeometry>
        </mxCell>
        <mxCell id="NDDpkbU5bPHlQD1MSe6W-84" value="Photo" style="ellipse;whiteSpace=wrap;html=1;align=center;" vertex="1" parent="1">
          <mxGeometry x="920" y="510" width="80" height="30" as="geometry" />
        </mxCell>
        <mxCell id="NDDpkbU5bPHlQD1MSe6W-85" value="Description" style="ellipse;whiteSpace=wrap;html=1;align=center;" vertex="1" parent="1">
          <mxGeometry x="827" y="580" width="80" height="30" as="geometry" />
        </mxCell>
        <mxCell id="NDDpkbU5bPHlQD1MSe6W-86" value="" style="endArrow=none;html=1;rounded=0;exitX=0.5;exitY=0;exitDx=0;exitDy=0;entryX=0.5;entryY=1;entryDx=0;entryDy=0;" edge="1" parent="1" source="NDDpkbU5bPHlQD1MSe6W-85" target="NDDpkbU5bPHlQD1MSe6W-80">
          <mxGeometry relative="1" as="geometry">
            <mxPoint x="720" y="535" as="sourcePoint" />
            <mxPoint x="795" y="510" as="targetPoint" />
          </mxGeometry>
        </mxCell>
        <mxCell id="NDDpkbU5bPHlQD1MSe6W-88" value="Value" style="ellipse;whiteSpace=wrap;html=1;align=center;" vertex="1" parent="1">
          <mxGeometry x="780" y="610" width="80" height="30" as="geometry" />
        </mxCell>
        <mxCell id="NDDpkbU5bPHlQD1MSe6W-89" value="" style="endArrow=none;html=1;rounded=0;exitX=0.5;exitY=0;exitDx=0;exitDy=0;entryX=0;entryY=1;entryDx=0;entryDy=0;" edge="1" parent="1" source="NDDpkbU5bPHlQD1MSe6W-88" target="NDDpkbU5bPHlQD1MSe6W-80">
          <mxGeometry relative="1" as="geometry">
            <mxPoint x="673" y="565" as="sourcePoint" />
            <mxPoint x="793" y="540" as="targetPoint" />
          </mxGeometry>
        </mxCell>
        <mxCell id="NDDpkbU5bPHlQD1MSe6W-90" value="" style="endArrow=none;html=1;rounded=0;exitX=0.25;exitY=0;exitDx=0;exitDy=0;entryX=1;entryY=0.5;entryDx=0;entryDy=0;" edge="1" parent="1" target="NDDpkbU5bPHlQD1MSe6W-46">
          <mxGeometry relative="1" as="geometry">
            <mxPoint x="845" y="470" as="sourcePoint" />
            <mxPoint x="700" y="370" as="targetPoint" />
            <Array as="points">
              <mxPoint x="820" y="410" />
            </Array>
          </mxGeometry>
        </mxCell>
        <mxCell id="NDDpkbU5bPHlQD1MSe6W-91" value="Wallet" style="whiteSpace=wrap;html=1;align=center;" vertex="1" parent="1">
          <mxGeometry x="250" y="480" width="100" height="40" as="geometry" />
        </mxCell>
        <mxCell id="NDDpkbU5bPHlQD1MSe6W-92" value="" style="endArrow=none;html=1;rounded=0;exitX=0.5;exitY=0;exitDx=0;exitDy=0;entryX=0.5;entryY=1;entryDx=0;entryDy=0;" edge="1" parent="1" source="NDDpkbU5bPHlQD1MSe6W-93" target="NDDpkbU5bPHlQD1MSe6W-91">
          <mxGeometry relative="1" as="geometry">
            <mxPoint x="240" y="895" as="sourcePoint" />
            <mxPoint x="510" y="910" as="targetPoint" />
          </mxGeometry>
        </mxCell>
        <mxCell id="NDDpkbU5bPHlQD1MSe6W-93" value="Coins" style="ellipse;whiteSpace=wrap;html=1;align=center;" vertex="1" parent="1">
          <mxGeometry x="260" y="600" width="80" height="30" as="geometry" />
        </mxCell>
        <mxCell id="NDDpkbU5bPHlQD1MSe6W-97" value="" style="endArrow=none;html=1;rounded=0;exitX=0.5;exitY=0;exitDx=0;exitDy=0;entryX=0.5;entryY=1;entryDx=0;entryDy=0;" edge="1" parent="1" source="NDDpkbU5bPHlQD1MSe6W-91" target="NDDpkbU5bPHlQD1MSe6W-98">
          <mxGeometry relative="1" as="geometry">
            <mxPoint x="230" y="745" as="sourcePoint" />
            <mxPoint x="300" y="380" as="targetPoint" />
          </mxGeometry>
        </mxCell>
        <mxCell id="NDDpkbU5bPHlQD1MSe6W-98" value="Description" style="ellipse;whiteSpace=wrap;html=1;align=center;" vertex="1" parent="1">
          <mxGeometry x="260" y="430" width="80" height="30" as="geometry" />
        </mxCell>
        <mxCell id="NDDpkbU5bPHlQD1MSe6W-99" value="" style="endArrow=none;html=1;rounded=0;exitX=1;exitY=0;exitDx=0;exitDy=0;entryX=0;entryY=0.5;entryDx=0;entryDy=0;" edge="1" parent="1" source="NDDpkbU5bPHlQD1MSe6W-31" target="NDDpkbU5bPHlQD1MSe6W-91">
          <mxGeometry relative="1" as="geometry">
            <mxPoint x="240" y="580" as="sourcePoint" />
            <mxPoint x="260" y="660" as="targetPoint" />
          </mxGeometry>
        </mxCell>
        <mxCell id="NDDpkbU5bPHlQD1MSe6W-100" value="" style="endArrow=none;html=1;rounded=0;exitX=1;exitY=0.5;exitDx=0;exitDy=0;entryX=0;entryY=0;entryDx=0;entryDy=0;" edge="1" parent="1" source="NDDpkbU5bPHlQD1MSe6W-91" target="NDDpkbU5bPHlQD1MSe6W-40">
          <mxGeometry relative="1" as="geometry">
            <mxPoint x="250" y="590" as="sourcePoint" />
            <mxPoint x="270" y="670" as="targetPoint" />
          </mxGeometry>
        </mxCell>
      </root>
    </mxGraphModel>
  </diagram>
</mxfile>
